<svg aria-hidden="true" style="position: absolute; width: 0; height: 0; overflow: hidden;" version="1.1" xmlns="http://www.w3.org/2000/svg" xmlns:xlink="http://www.w3.org/1999/xlink">
<defs>
<symbol id="vector" viewBox="0 0 7 10">
<path d="M0.96959 0.226975C0.828987 0.367621 0.75 0.558352 0.75 0.757225C0.75 0.956098 0.828987 1.14683 0.96959 1.28748L4.68209 4.99998L0.96959 8.71247C0.832971 8.85393 0.757375 9.04338 0.759084 9.24003C0.760793 9.43667 0.83967 9.62478 0.978726 9.76384C1.11778 9.9029 1.30589 9.98177 1.50254 9.98348C1.69919 9.98519 1.88864 9.90959 2.03009 9.77297L6.27284 5.53022C6.41344 5.38958 6.49243 5.19885 6.49243 4.99998C6.49243 4.8011 6.41344 4.61037 6.27284 4.46973L2.03009 0.226975C1.88944 0.0863718 1.69871 0.00738525 1.49984 0.00738525C1.30097 0.00738525 1.11024 0.0863718 0.96959 0.226975Z" fill="black"/>
</symbol>
<symbol id="x-button" viewBox="0 0 12 12">
<path d="M6.7831 5.99997L11.3887 1.39441C11.4797 1.28813 11.5272 1.15142 11.5218 1.0116C11.5164 0.871784 11.4585 0.739152 11.3595 0.64021C11.2606 0.541269 11.128 0.483306 10.9881 0.477905C10.8483 0.472505 10.7116 0.520064 10.6053 0.611079L5.99977 5.21663L1.39421 0.605523C1.2896 0.50091 1.14771 0.442139 0.999768 0.442139C0.851823 0.442139 0.709937 0.50091 0.605324 0.605523C0.50071 0.710136 0.441939 0.852022 0.441939 0.999967C0.441939 1.14791 0.50071 1.2898 0.605324 1.39441L5.21643 5.99997L0.605324 10.6055C0.547167 10.6553 0.499934 10.7166 0.466587 10.7855C0.433241 10.8545 0.414502 10.9295 0.411547 11.006C0.408592 11.0826 0.421483 11.1589 0.449414 11.2301C0.477344 11.3014 0.51971 11.3662 0.573851 11.4203C0.627993 11.4745 0.692741 11.5168 0.764033 11.5448C0.835325 11.5727 0.91162 11.5856 0.988131 11.5826C1.06464 11.5797 1.13972 11.5609 1.20864 11.5276C1.27757 11.4942 1.33885 11.447 1.38866 11.3889L5.99977 6.7833L10.6053 11.3889C10.7116 11.4799 10.8483 11.5274 10.9881 11.522C11.128 11.5166 11.2606 11.4587 11.3595 11.3597C11.4585 11.2608 11.5164 11.1282 11.5218 10.9883C11.5272 10.8485 11.4797 10.7118 11.3887 10.6055L6.7831 5.99997Z" fill="#131313"/>
</symbol>
</defs>
</svg>
